HIERARCHY
ROOT Hips
{
    OFFSET   0.000000   0.000000   0.000000
    CHANNELS 6 Xposition Yposition Zposition Zrotation Xrotation Yrotation
    JOINT Chest
    {
        OFFSET   0.000000   8.007230   0.000000
        CHANNELS 3 Zrotation Xrotation Yrotation
        JOINT Chest2
        {
            OFFSET   0.000000  22.077100   0.000000
            CHANNELS 3 Zrotation Xrotation Yrotation
            JOINT Neck
            {
                OFFSET   0.000000  23.255100   0.000000
                CHANNELS 3 Zrotation Xrotation Yrotation
                JOINT Head
                {
                    OFFSET   0.000000  14.370100   1.956600
                    CHANNELS 3 Zrotation Xrotation Yrotation
                    End Site
                    {
                        OFFSET   0.000000  19.566000   0.000000
                    }
                }
            }
            JOINT LeftCollar
            {
                OFFSET   3.911900  19.017000  -0.467063
                CHANNELS 3 Zrotation Xrotation Yrotation
                JOINT LeftShoulder
                {
                    OFFSET  10.383700   0.000000   0.000000
                    CHANNELS 3 Zrotation Xrotation Yrotation
                    JOINT LeftElbow
                    {
                        OFFSET  26.662100   0.001193   0.000980
                        CHANNELS 3 Zrotation Xrotation Yrotation
                        JOINT LeftWrist
                        {
                            OFFSET  28.869000  -0.000059  -0.000082
                            CHANNELS 3 Zrotation Xrotation Yrotation
                            JOINT LeftFinger0
                            {
                                OFFSET   2.044650  -2.323450   3.252850
                                CHANNELS 3 Zrotation Xrotation Yrotation
                                JOINT LeftFinger01
                                {
                                    OFFSET   3.088130   0.000000   0.000000
                                    CHANNELS 3 Zrotation Xrotation Yrotation
                                    JOINT LeftFinger02
                                    {
                                        OFFSET   2.639460   0.000000   0.000000
                                        CHANNELS 3 Zrotation Xrotation Yrotation
                                        End Site
                                        {
                                            OFFSET   2.582190   0.000000   0.000000
                                        }
                                    }
                                }
                            }
                            JOINT LeftFinger1
                            {
                                OFFSET   8.364480   0.000000   3.252850
                                CHANNELS 3 Zrotation Xrotation Yrotation
                                JOINT LeftFinger11
                                {
                                    OFFSET   4.646930   0.000000   0.000000
                                    CHANNELS 3 Zrotation Xrotation Yrotation
                                    JOINT LeftFinger12
                                    {
                                        OFFSET   2.323470   0.000000   0.000000
                                        CHANNELS 3 Zrotation Xrotation Yrotation
                                        End Site
                                        {
                                            OFFSET   2.273050   0.000000   0.000000
                                        }
                                    }
                                }
                            }
                            JOINT LeftFinger2
                            {
                                OFFSET   8.364490   0.000016   1.078090
                                CHANNELS 3 Zrotation Xrotation Yrotation
                                JOINT LeftFinger21
                                {
                                    OFFSET   5.111610   0.000000   0.000000
                                    CHANNELS 3 Zrotation Xrotation Yrotation
                                    JOINT LeftFinger22
                                    {
                                        OFFSET   2.788150   0.000016   0.000000
                                        CHANNELS 3 Zrotation Xrotation Yrotation
                                        End Site
                                        {
                                            OFFSET   2.727660   0.000000   0.000000
                                        }
                                    }
                                }
                            }
                            JOINT LeftFinger3
                            {
                                OFFSET   7.899780   0.000015  -1.078090
                                CHANNELS 3 Zrotation Xrotation Yrotation
                                JOINT LeftFinger31
                                {
                                    OFFSET   4.646930   0.000000   0.000000
                                    CHANNELS 3 Zrotation Xrotation Yrotation
                                    JOINT LeftFinger32
                                    {
                                        OFFSET   2.323470   0.000000   0.000000
                                        CHANNELS 3 Zrotation Xrotation Yrotation
                                        End Site
                                        {
                                            OFFSET   2.273050   0.000000   0.000000
                                        }
                                    }
                                }
                            }
                            JOINT LeftFinger4
                            {
                                OFFSET   7.435090   0.000000  -3.252850
                                CHANNELS 3 Zrotation Xrotation Yrotation
                                JOINT LeftFinger41
                                {
                                    OFFSET   3.717550   0.000000   0.000000
                                    CHANNELS 3 Zrotation Xrotation Yrotation
                                    JOINT LeftFinger42
                                    {
                                        OFFSET   1.858770   0.000000   0.000000
                                        CHANNELS 3 Zrotation Xrotation Yrotation
                                        End Site
                                        {
                                            OFFSET   1.818440   0.000000   0.000000
                                        }
                                    }
                                }
                            }
                        }
                    }
                }
            }
            JOINT RightCollar
            {
                OFFSET  -3.911910  19.017000  -0.467062
                CHANNELS 3 Zrotation Xrotation Yrotation
                JOINT RightShoulder
                {
                    OFFSET -10.383700   0.000014   0.000000
                    CHANNELS 3 Zrotation Xrotation Yrotation
                    JOINT RightElbow
                    {
                        OFFSET -26.662100   0.001225   0.001091
                        CHANNELS 3 Zrotation Xrotation Yrotation
                        JOINT RightWrist
                        {
                            OFFSET -28.869000  -0.000020  -0.000085
                            CHANNELS 3 Zrotation Xrotation Yrotation
                            JOINT RightFinger0
                            {
                                OFFSET  -2.044650  -2.323490   3.252850
                                CHANNELS 3 Zrotation Xrotation Yrotation
                                JOINT RightFinger01
                                {
                                    OFFSET  -3.088130   0.000000   0.000000
                                    CHANNELS 3 Zrotation Xrotation Yrotation
                                    JOINT RightFinger02
                                    {
                                        OFFSET  -2.639460   0.000000   0.000000
                                        CHANNELS 3 Zrotation Xrotation Yrotation
                                        End Site
                                        {
                                            OFFSET  -2.582190   0.000000   0.000000
                                        }
                                    }
                                }
                            }
                            JOINT RightFinger1
                            {
                                OFFSET  -8.364480   0.000000   3.252850
                                CHANNELS 3 Zrotation Xrotation Yrotation
                                JOINT RightFinger11
                                {
                                    OFFSET  -4.646930   0.000000   0.000000
                                    CHANNELS 3 Zrotation Xrotation Yrotation
                                    JOINT RightFinger12
                                    {
                                        OFFSET  -2.323470   0.000000   0.000000
                                        CHANNELS 3 Zrotation Xrotation Yrotation
                                        End Site
                                        {
                                            OFFSET  -2.273050   0.000000   0.000000
                                        }
                                    }
                                }
                            }
                            JOINT RightFinger2
                            {
                                OFFSET  -8.364480   0.000000   1.078090
                                CHANNELS 3 Zrotation Xrotation Yrotation
                                JOINT RightFinger21
                                {
                                    OFFSET  -5.111620   0.000000   0.000000
                                    CHANNELS 3 Zrotation Xrotation Yrotation
                                    JOINT RightFinger22
                                    {
                                        OFFSET  -2.788160   0.000000   0.000000
                                        CHANNELS 3 Zrotation Xrotation Yrotation
                                        End Site
                                        {
                                            OFFSET  -2.727660   0.000000   0.000000
                                        }
                                    }
                                }
                            }
                            JOINT RightFinger3
                            {
                                OFFSET  -7.899780   0.000000  -1.078090
                                CHANNELS 3 Zrotation Xrotation Yrotation
                                JOINT RightFinger31
                                {
                                    OFFSET  -4.646930   0.000000   0.000000
                                    CHANNELS 3 Zrotation Xrotation Yrotation
                                    JOINT RightFinger32
                                    {
                                        OFFSET  -2.323470   0.000000   0.000000
                                        CHANNELS 3 Zrotation Xrotation Yrotation
                                        End Site
                                        {
                                            OFFSET  -2.273050   0.000000   0.000000
                                        }
                                    }
                                }
                            }
                            JOINT RightFinger4
                            {
                                OFFSET  -7.435090   0.000000  -3.252850
                                CHANNELS 3 Zrotation Xrotation Yrotation
                                JOINT RightFinger41
                                {
                                    OFFSET  -3.717550   0.000000   0.000000
                                    CHANNELS 3 Zrotation Xrotation Yrotation
                                    JOINT RightFinger42
                                    {
                                        OFFSET  -1.858760   0.000000   0.000000
                                        CHANNELS 3 Zrotation Xrotation Yrotation
                                        End Site
                                        {
                                            OFFSET  -1.818440   0.000000   0.000000
                                        }
                                    }
                                }
                            }
                        }
                    }
                }
            }
        }
    }
    JOINT LeftHip
    {
        OFFSET   9.783030   0.000000   0.000000
        CHANNELS 3 Zrotation Xrotation Yrotation
        JOINT LeftKnee
        {
            OFFSET   0.000063 -41.789100   0.000608
            CHANNELS 3 Zrotation Xrotation Yrotation
            JOINT LeftAnkle
            {
                OFFSET   0.000048 -41.133200  -0.000184
                CHANNELS 3 Zrotation Xrotation Yrotation
                JOINT LeftToe
                {
                    OFFSET   0.000000  -6.358960  14.674500
                    CHANNELS 3 Zrotation Xrotation Yrotation
                    End Site
                    {
                        OFFSET   0.000000   0.000000   3.913200
                    }
                }
            }
        }
    }
    JOINT RightHip
    {
        OFFSET  -9.783030   0.000000   0.000000
        CHANNELS 3 Zrotation Xrotation Yrotation
        JOINT RightKnee
        {
            OFFSET   0.000071 -41.789100   0.001239
            CHANNELS 3 Zrotation Xrotation Yrotation
            JOINT RightAnkle
            {
                OFFSET   0.000037 -41.133200  -0.000166
                CHANNELS 3 Zrotation Xrotation Yrotation
                JOINT RightToe
                {
                    OFFSET   0.000000  -6.358960  14.674500
                    CHANNELS 3 Zrotation Xrotation Yrotation
                    End Site
                    {
                        OFFSET   0.000000   0.000000   3.913200
                    }
                }
            }
        }
    }
}
MOTION
Frames: 5
Frame Time:   0.016667
  1.833470  89.262000   4.143890   5.009270 -10.824600  21.845800  -1.408080   9.839380   5.110540  -3.799910  19.505800  10.708000  -1.200830  -7.107170  -0.148594  -2.059910 -14.392600 -22.935800  -9.127880 -11.123900   6.004330 -70.491900  16.476500  -9.417000   0.216855   4.742420 -15.522100  12.098100  -7.080160   1.400400  40.150000  35.887600 -51.147900 -34.549200   0.003560   0.002528 -12.394000   0.001339   0.002533 -38.654500  -3.502150   4.367930 -31.735700   0.005224   0.011128 -22.215000   0.004662   0.007985 -34.841200  -3.576930   5.126010 -52.501700   0.001203  -0.002934 -34.966100   0.000082   0.003271 -28.855300  -4.599980   8.280990 -43.782700  -0.003131   0.010849 -29.159300  -0.006174   0.004777 -38.002900  -5.860800   7.445220 -57.576900  -0.005555   0.026933 -38.346300  -0.017670   0.000611  -1.672190  -6.312390   8.738720  44.319500 -21.949000  64.275600 -14.365000 -11.462900  19.508300 -71.265400  -3.667850  10.260400 -59.040400  54.333300 108.293000 -10.126900  -0.006325  -0.001093 -10.063500   0.002669   0.002657  50.632300  -2.101600  -1.723410  41.452300  -0.001698   0.006149  31.089200   0.000806   0.003321  43.847000  -3.574230  -3.717810  54.451300   0.000266   0.003508  38.400300   0.002203   0.003222  53.746700  -6.303320  -4.603200  54.000400  -0.000207  -0.001465  40.500300   0.005759  -0.000424  58.131900  -7.972610  -4.928330  87.713200   0.002247   0.000819  58.417000   0.000166   0.000736   0.017765  11.318000  -1.870720   2.700660   4.463450   0.326938  -8.012190  -0.972044  -9.893940   0.000000   0.000000   0.000000  -1.476250  13.584200  -8.363020   1.791110   8.672000 -23.650300   0.329881  -7.694050  -8.959150   0.000000   0.000000   0.000000
  1.831510  89.281300   4.152600   4.972970 -10.944500  21.643000  -1.402030   9.799200   5.129800  -3.784930  19.425500  10.742500  -1.127440  -6.897960  -0.135551  -1.930210 -13.970700 -22.887100  -9.160080 -11.025900   5.815930 -70.562600  16.040200  -9.251930   0.247214   4.916820 -15.581200  12.089900  -7.104860   1.332760  40.137400  35.877200 -51.105500 -34.560400   0.003668   0.002590 -12.404200   0.001288   0.002741 -38.695800  -3.499390   4.357710 -31.769100   0.005223   0.005040 -22.238400   0.004663   0.003401 -34.882300  -3.576920   5.115100 -52.563100   0.001203  -0.002937 -35.007000   0.000081   0.003273 -28.880900  -4.624210   8.317410 -43.827600  -0.003131   0.003234 -29.189200  -0.006174   0.004777 -38.048400  -5.891990   7.476220 -57.647400  -0.005553   0.016161 -38.393200  -0.008824   0.000849  -1.612320  -6.188940   8.611540  44.791000 -21.797600  64.218800 -14.301400 -11.199700  19.841700 -71.038100  -3.586040  10.153600 -59.040400  54.333300 108.293000 -10.961000  -0.006602  -0.001269 -10.480500   0.003006   0.002965  50.746600  -2.083610  -1.701950  41.545300  -0.001703   0.006157  31.158900   0.000799   0.003295  44.106300  -3.573990  -3.683280  54.451300   0.000261   0.003458  38.465900   0.002208   0.003243  53.876000  -6.299750  -4.579080  54.128200  -0.000206  -0.001542  40.596100   0.005770  -0.000492  58.273600  -8.036770  -4.939890  87.931100   0.002333   0.000898  58.562100   0.000196   0.000717   0.014126  11.414400  -1.885110   2.728140   4.546270   0.393612  -7.988800  -1.080440  -9.744650  -0.000000   0.000000   0.000000  -1.515360  13.607800  -8.393170   1.817220   8.834740 -23.504800   0.331367  -7.675790  -8.865870  -0.000000   0.000000   0.000000
  1.828100  89.301100   4.155810   4.909580 -11.072300  21.391200  -1.388440   9.754870   5.149000  -3.756650  19.337600  10.776500  -1.049400  -6.683990  -0.122359  -1.792520 -13.539500 -22.838900  -9.188980 -10.920200   5.687390 -70.650400  15.592000  -9.110150   0.279437   5.110460 -15.593800  12.073300  -7.157860   1.213420  40.119600  35.874000 -51.074800 -34.580500   0.003776   0.002649 -12.422600   0.001244   0.002953 -38.762100  -3.494660   4.341300 -31.822800   0.005221  -0.001049 -22.276000   0.004663   0.000362 -34.924100  -3.576930   5.104010 -52.625400   0.001202  -0.002937 -35.048500   0.000079   0.003275 -28.896200  -4.667490   8.386550 -43.857700  -0.003132  -0.001555 -29.209200  -0.006173   0.004776 -38.064000  -5.946900   7.536770 -57.683900  -0.005551   0.003411 -38.417500  -0.002508   0.000987  -1.554000  -6.066030   8.499690  45.112200 -21.525200  64.031500 -14.266900 -10.871600  20.174500 -70.757100  -3.535060  10.021100 -59.040400  54.333300 108.293000 -11.795100  -0.006752  -0.001422 -10.897500   0.003343   0.003261  50.911100  -2.057760  -1.671060  41.679200  -0.001708   0.006166  31.259300   0.000793   0.003273  44.483000  -3.573780  -3.633120  54.451200   0.000251   0.003414  38.561300   0.002210   0.003262  54.057900  -6.294830  -4.545150  54.307900  -0.000205  -0.001623  40.730900   0.005783  -0.000562  58.469800  -8.125660  -4.955950  88.232900   0.002409   0.000974  58.763100   0.000222   0.000697   0.011178  11.506600  -1.904560   2.766900   4.643780   0.491908  -7.942470  -1.212850  -9.571650  -0.000000   0.000000   0.000000  -1.534700  13.615900  -8.408030   1.833310   9.002860 -23.334700   0.335735  -7.652950  -8.766070   0.000000   0.000000  -0.000000
  1.825080  89.317700   4.149840   4.834050 -11.206000  21.102800  -1.362770   9.703050   5.133470  -3.695810  19.237200  10.736800  -0.970325  -6.471680  -0.109539  -1.657230 -13.110000 -22.708200  -9.186060 -10.799900   5.715510 -70.816900  15.166600  -8.980770   0.321237   5.347770 -15.596800  12.031800  -7.236130   1.096880  40.181300  35.998500 -51.154300 -34.601100   0.003882   0.002720 -12.442300   0.001207   0.003175 -38.813100  -3.490040   4.328650 -31.864000   0.005223  -0.001049 -22.304900   0.004665   0.000362 -34.944200  -3.576930   5.098820 -52.655400   0.001198  -0.002932 -35.068500   0.000083   0.003273 -28.887000  -4.715210   8.475660 -43.854200  -0.003133  -0.001553 -29.206800  -0.006171   0.004776 -38.033800  -6.004800   7.619890 -57.652300  -0.005553  -0.002173 -38.396500  -0.002509   0.000987  -1.506990  -5.935100   8.467830  45.534800 -21.225200  63.790800 -14.284500 -10.307400  20.553900 -70.276100  -3.537680   9.819410 -59.040400  54.333300 108.293000 -11.660900  -0.005568  -0.001028 -10.830400   0.003676   0.003540  50.997800  -2.044310  -1.654780  41.749600  -0.001715   0.006184  31.312200   0.000794   0.003249  44.693300  -3.573450  -3.605100  54.451200   0.000233   0.003376  38.614800   0.002216   0.003269  54.139000  -6.292780  -4.530020  54.388200  -0.000204  -0.001716  40.791100   0.005801  -0.000635  58.546400  -8.160370  -4.962280  88.350800   0.002480   0.001049  58.841600   0.000252   0.000668   0.007732  11.597300  -1.939100   2.802820   4.744080   0.616174  -7.882730  -1.358170  -9.372960   0.000000   0.000000   0.000000  -1.534040  13.612600  -8.384770   1.830990   9.170300 -23.152300   0.343278  -7.642280  -8.682330  -0.000000   0.000000   0.000000
  1.821910  89.332300   4.138900   4.746800 -11.341200  20.785300  -1.330600   9.643250   5.091400  -3.615540  19.122800  10.640200  -0.887821  -6.258940  -0.096915  -1.509650 -12.682400 -22.473500  -9.162620 -10.672500   5.799170 -71.024000  14.806500  -8.850390   0.365276   5.587270 -15.597300  11.978000  -7.306700   0.986757  40.296800  36.206700 -51.324900 -34.620000   0.003989   0.002798 -12.459900   0.001175   0.003402 -38.854800  -3.486370   4.318290 -31.897800   0.005226  -0.001049 -22.328500   0.004665   0.000364 -34.955900  -3.576930   5.095510 -52.672900   0.001195  -0.002927 -35.080100   0.000086   0.003270 -28.878600  -4.752410   8.542770 -43.850600  -0.003133  -0.001552 -29.204500  -0.006169   0.004776 -38.007300  -6.050600   7.681560 -57.620800  -0.005554  -0.003903 -38.375400  -0.002510   0.000987  -1.449490  -5.798360   8.461480  46.012700 -20.812500  63.464500 -14.303800  -9.673020  21.062200 -69.749800  -3.543140   9.601250 -59.040400  54.333300 108.293000 -11.438500  -0.002180  -0.000173 -10.719200   0.004011   0.003794  51.034200  -2.038720  -1.647930  41.779200  -0.001722   0.006202  31.334400   0.000795   0.003226  44.786100  -3.573020  -3.592720  54.451200   0.000222   0.003338  38.638600   0.002223   0.003276  54.167600  -6.291740  -4.524690  54.416400  -0.000199  -0.001811  40.812300   0.005819  -0.000707  58.568400  -8.170370  -4.964130  88.384800   0.002546   0.001120  58.864300   0.000271   0.000640   0.010801  11.692900  -1.979150   2.830230   4.832270   0.756769  -7.814820  -1.508360  -9.158480  -0.000000   0.000000  -0.000000  -1.520310  13.610300  -8.330860   1.810690   9.318630 -22.974700   0.351177  -7.624000  -8.594130   0.000000   0.000000  -0.000000
